<svg width="34" height="34" viewBox="0 0 34 34" fill="none" xmlns="http://www.w3.org/2000/svg">
<path d="M29.75 10.625H4.25C3.96821 10.625 3.69796 10.5131 3.4987 10.3138C3.29944 10.1145 3.1875 9.84429 3.1875 9.5625C3.1875 9.28071 3.29944 9.01046 3.4987 8.8112C3.69796 8.61194 3.96821 8.5 4.25 8.5H29.75C30.0318 8.5 30.302 8.61194 30.5013 8.8112C30.7006 9.01046 30.8125 9.28071 30.8125 9.5625C30.8125 9.84429 30.7006 10.1145 30.5013 10.3138C30.302 10.5131 30.0318 10.625 29.75 10.625Z" fill="white"/>
<path d="M29.75 18.0625H4.25C3.96821 18.0625 3.69796 17.9506 3.4987 17.7513C3.29944 17.552 3.1875 17.2818 3.1875 17C3.1875 16.7182 3.29944 16.448 3.4987 16.2487C3.69796 16.0494 3.96821 15.9375 4.25 15.9375H29.75C30.0318 15.9375 30.302 16.0494 30.5013 16.2487C30.7006 16.448 30.8125 16.7182 30.8125 17C30.8125 17.2818 30.7006 17.552 30.5013 17.7513C30.302 17.9506 30.0318 18.0625 29.75 18.0625Z" fill="white"/>
<path d="M29.75 25.5H4.25C3.96821 25.5 3.69796 25.3881 3.4987 25.1888C3.29944 24.9895 3.1875 24.7193 3.1875 24.4375C3.1875 24.1557 3.29944 23.8855 3.4987 23.6862C3.69796 23.4869 3.96821 23.375 4.25 23.375H29.75C30.0318 23.375 30.302 23.4869 30.5013 23.6862C30.7006 23.8855 30.8125 24.1557 30.8125 24.4375C30.8125 24.7193 30.7006 24.9895 30.5013 25.1888C30.302 25.3881 30.0318 25.5 29.75 25.5Z" fill="white"/>
</svg>
